<?xml version="1.0" encoding="UTF-8"?>
<svg id="Layer_2" data-name="Layer 2" xmlns="http://www.w3.org/2000/svg" xmlns:xlink="http://www.w3.org/1999/xlink" viewBox="0 0 97.49 81.52">
  <defs>
    <style>
      .cls-1 {
        fill: #2da4dd;
      }

      .cls-2 {
        fill: #e72028;
      }

      .cls-3 {
        filter: url(#drop-shadow-1);
      }
    </style>
    <filter id="drop-shadow-1" x="-8.42" y="-8.89" width="128" height="113" filterUnits="userSpaceOnUse">
      <feOffset dx="7" dy="7"/>
      <feGaussianBlur result="blur" stdDeviation="5"/>
      <feFlood flood-color="#000" flood-opacity=".19"/>
      <feComposite in2="blur" operator="in"/>
      <feComposite in="SourceGraphic"/>
    </filter>
  </defs>
  <g id="BG">
    <g class="cls-3">
      <path class="cls-2" d="M14.37,81.52c-1-.06-2-.06-2.99,0-.95-.07-1.9-.07-2.85,0-.05,0-.09,0-.14,0-.62-.07-1.23-.05-1.85,0-.18-.28.08-.43.21-.61.52-.75,1.06-1.5,1.58-2.24.08-.11.16-.23.23-.34.75-.86,1.4-1.8,2.02-2.76.32-.34.6-.71.82-1.13.49-.53.91-1.12,1.27-1.74.71-.87,1.38-1.76,1.98-2.71.18-.09.26-.24.31-.42.75-.9,1.43-1.85,2.07-2.84.18-.12.3-.29.35-.5.72-.83,1.34-1.73,1.95-2.65.44-.51.86-1.04,1.19-1.64.38-.34.59-.8.88-1.21,1.52-1.95,2.97-3.96,4.37-6,.24-.33.48-.66.72-.99.57-.68,1.1-1.39,1.57-2.14.48-.57.92-1.16,1.31-1.79.32-.31.57-.67.78-1.06.8-1,1.55-2.04,2.25-3.12.03-.04.06-.08.09-.12.73-.87,1.39-1.79,2-2.74.34-.34.63-.72.84-1.15.49-.66,1.06-1.25,1.45-1.98,1.53-1.95,2.96-3.96,4.38-5.99.06-.09.12-.17.18-.26.3-.28.53-.61.71-.97.79-1.06,1.6-2.12,2.38-3.19,1.81-2.5,3.62-5,5.42-7.5.29-.31.57-.64.75-1.04.51-.57.95-1.19,1.35-1.85,1.51-1.96,2.97-3.95,4.36-5.99.04-.05.08-.1.12-.15.76-.96,1.51-1.93,2.15-2.98.29-.28.53-.61.71-.97.54-.57.97-1.23,1.39-1.89.58-.8,1.16-1.59,1.74-2.39.19-.16.34-.35.42-.58.78-.96,1.52-1.95,2.18-2.99.19-.15.34-.33.41-.56.2-.23.46-.28.76-.28.73,0,1.46-.02,2.2-.03.95.07,1.9.07,2.85,0,1.05.06,2.09.06,3.14,0,.94.01,1.89.03,2.83.04.01.31-.21.52-.34.76-.54.97-1.1,1.93-1.65,2.9-.36.43-.64.91-.84,1.43-.4.53-.72,1.1-.99,1.71-.63.89-1.15,1.84-1.64,2.82-.22.26-.39.55-.51.87-.52.71-.94,1.48-1.34,2.27-.5.86-1,1.73-1.51,2.59-.08.12-.16.25-.23.37-.62,1-1.25,1.99-1.76,3.05-1.25,1.95-2.37,3.97-3.52,5.99-.16.28-.32.56-.48.85-.44.63-.84,1.29-1.15,1.99-.67,1.02-1.29,2.05-1.83,3.15-.11.06-.16.15-.15.27-.58.81-1.05,1.68-1.51,2.57-1.21,1.97-2.4,3.96-3.49,6-.4.53-.71,1.11-.99,1.7-.34.45-.63.91-.83,1.44-.61.91-1.16,1.85-1.64,2.83-.2.19-.33.41-.39.67-.55.78-1.01,1.62-1.44,2.47-.62.92-1.18,1.87-1.67,2.86-.11.06-.15.16-.15.28-.64.9-1.19,1.86-1.67,2.86-.41.6-.8,1.22-1.08,1.89-.26.27-.44.58-.56.94-.67,1.01-1.28,2.06-1.84,3.15-.3.37-.54.77-.71,1.22-.38.51-.69,1.07-.96,1.64-.67,1-1.27,2.03-1.8,3.1-.04.07-.08.15-.12.22-.61.83-1.09,1.73-1.55,2.65-1.18,1.92-2.33,3.86-3.41,5.84-.4.53-.73,1.1-.99,1.71-.37.48-.68.99-.91,1.56-.57.95-1.14,1.89-1.72,2.84-.17.01-.34.02-.51.03-.95-.07-1.9-.07-2.85,0-.05,0-.09,0-.14,0-1-.06-2-.06-2.99,0-.95-.07-1.9-.07-2.85,0-.05,0-.09,0-.14,0-1-.06-2-.06-2.99,0-.95-.07-1.9-.07-2.85,0-.05,0-.09,0-.14,0Z"/>
      <path class="cls-1" d="M95.73,58.69c.54.53,1.14,1,1.75,1.44-.16.27-.42.17-.64.17-5.22,0-10.44,0-15.66.01-.38,0-.68-.1-.98-.33-.8-.59-1.56-1.24-2.43-1.72-.28-.29-.6-.54-.98-.71-.58-.51-1.19-.98-1.86-1.36-1.95-1.55-3.95-3.02-6-4.43-.11-.08-.23-.15-.34-.23-.87-.77-1.82-1.43-2.79-2.06-.33-.3-.68-.57-1.07-.78-.54-.5-1.13-.92-1.75-1.3-1.97-1.5-3.95-2.99-6.01-4.38-.02-.09-.04-.18-.05-.27.07-.14.14-.28.2-.42.6-.86,1.12-1.76,1.57-2.7,1.22-1.96,2.37-3.96,3.48-5.98.3-.49.61-.97.91-1.46.25.18.5.35.74.54,1.71,1.34,3.31,2.8,5.07,4.08.92.85,1.88,1.63,2.9,2.36.14.21.33.36.56.45.8.77,1.67,1.46,2.57,2.12.37.4.78.76,1.27,1.02.47.49.99.93,1.58,1.28.09.1.18.22.28.31,1.61,1.32,3.22,2.64,4.84,3.94,1.33,1.06,2.58,2.21,3.99,3.18.05.04.1.09.14.13.84.82,1.78,1.53,2.72,2.23.37.3.75.6,1.12.91.61.6,1.28,1.13,1.99,1.61.47.47.98.89,1.55,1.25.38.44.82.81,1.34,1.09Z"/>
      <path class="cls-1" d="M5.54,5.7C3.69,4.31,1.85,2.93,0,1.54c.13-.21.29-.14.41-.14,8.01,0,16.03,0,24.04,0,.35,0,.63.09.9.32.36.3.68.66,1.12.85.43.43.91.81,1.41,1.15.43.45.9.84,1.43,1.16.34.29.66.6,1.01.88,1.65,1.32,3.22,2.75,4.94,3.98,1,.96,2.09,1.8,3.19,2.64.14.21.34.35.57.46.71.68,1.46,1.32,2.28,1.86.33.41.75.71,1.19.98.61.58,1.23,1.13,1.95,1.58,1.74,1.56,3.57,3.01,5.39,4.46-1.81,2.5-3.61,5-5.42,7.5-.78,1.07-1.59,2.13-2.38,3.19-.24-.16-.48-.32-.72-.48-.51-.44-1.04-.85-1.63-1.18-.34-.36-.73-.67-1.2-.87-.98-.83-2.03-1.57-3.1-2.28-.93-.76-1.89-1.48-2.9-2.13-.25-.28-.56-.5-.91-.66-.68-.63-1.45-1.14-2.23-1.64-1.19-.89-2.37-1.8-3.57-2.67-1.75-1.28-3.45-2.64-5.28-3.82-.42-.4-.9-.72-1.39-1.02-.53-.49-1.1-.93-1.74-1.27-1.95-1.53-3.95-3-5.99-4.4-.09-.17-.25-.25-.42-.3-.75-.67-1.56-1.25-2.41-1.77-.45-.43-.95-.8-1.5-1.1-.45-.44-.97-.78-1.5-1.12Z"/>
    </g>
  </g>
</svg>